<svg id="fi_3401828" enable-background="new 0 0 512 512" viewBox="0 0 512 512" xmlns="http://www.w3.org/2000/svg">
    <g>
        <path d="m161 307c0-19.299 15.701-35 35-35h30c8.271 0 15-6.729 15-15s-6.729-15-15-15h-210c-8.284 0-15 6.716-15 15 0 33.081 6.274 65.194 18.228 95h96.772c24.813 0 45-20.187 45-45z"></path>
        <path d="m421.854 351.743c-7.911 23.733-30.031 39.804-55.042 39.989-19.475.144-44.306.209-61.707.238-7.777.013-14.105 6.352-14.105 14.13v.753c0 8.352 6.729 15.147 15 15.147h12c29.224 0 53 23.776 53 53v9.734c23.839-12.069 45.87-27.98 65.312-47.422 29.841-29.841 51.365-65.779 63.431-105.001l-51.627.362c-11.934.084-22.489 7.748-26.262 19.07z"></path>
        <path d="m496 242h-227.58c1.665 4.695 2.58 9.742 2.58 15 0 24.813-20.187 45-45 45h-30c-2.757 0-5 2.243-5 5 0 41.355-33.645 75-75 75h-82.385c11.291 20.016 25.379 38.619 42.073 55.312 48.163 48.164 112.199 74.688 180.312 74.688 29.411 0 58.059-4.956 85-14.454v-22.546c0-12.682-10.318-23-23-23h-12c-24.813 0-45-20.253-45-45.147v-.753c0-24.292 19.763-44.088 44.054-44.13 17.362-.029 42.132-.094 61.536-.237 12.178-.09 22.949-7.917 26.802-19.477 7.834-23.501 29.741-39.408 54.513-39.582l59.103-.415c2.635-14.791 3.992-29.92 3.992-45.259 0-8.284-6.716-15-15-15z"></path>
        <path d="m373.5 87.5c0 13.867-4.208 26.767-11.406 37.5h18.906v24.437c-14.365 4.794-25.699 16.27-30.286 30.727 7.45 9.171 12.793 20.037 15.442 31.836h108.718c-5.513-14.288-17.735-25.267-32.791-29.038-3.948-15.767-15.802-28.425-31.083-33.525v-24.437h35c20.678 0 37.5-16.822 37.5-37.5 0-18.252-13.107-33.5-30.403-36.826-3.385-28.501-27.7-50.674-57.097-50.674-22.568 0-42.128 13.076-51.536 32.043 17.709 12.316 29.036 32.794 29.036 55.457z"></path>
        <path d="m66 125h35v24.437c-15.281 5.1-27.135 17.758-31.083 33.525-15.056 3.77-27.278 14.75-32.791 29.038h108.718c2.649-11.799 7.992-22.664 15.442-31.836-4.587-14.457-15.92-25.933-30.286-30.727v-24.437h18.906c-7.199-10.733-11.406-23.633-11.406-37.5 0-22.663 11.327-43.141 29.036-55.457-9.408-18.967-28.968-32.043-51.536-32.043-29.397 0-53.712 22.173-57.097 50.674-17.296 3.326-30.403 18.574-30.403 36.826 0 20.678 16.822 37.5 37.5 37.5z"></path>
        <path d="m206 125h35v24.437c-15.281 5.1-27.135 17.758-31.083 33.525-15.056 3.77-27.278 14.75-32.791 29.038h157.748c-5.513-14.288-17.735-25.267-32.791-29.038-3.948-15.767-15.802-28.425-31.083-33.525v-24.437h35c20.678 0 37.5-16.822 37.5-37.5 0-18.252-13.107-33.5-30.403-36.826-3.385-28.501-27.7-50.674-57.097-50.674s-53.712 22.173-57.097 50.674c-17.296 3.326-30.403 18.574-30.403 36.826 0 20.678 16.822 37.5 37.5 37.5z"></path>
    </g>
</svg>